# xmcd
# Copyright (C) 1995-1998 Ti Kan
#
# Track frame offsets:
#       150
#       17019
#       35034
#       52708
#       76108
#       90527
#       94722
#       127932
#       152319
#       164785
#       185621
#       205374
#       209269
#       234285
#       258755
#       277555
#
# Disc length: 4433 seconds
#
# Revision: 0
# Processed by: cddbd v1.5.2PL0 Copyright (c) Steve Scherf et al.
# Submitted via: CD-Import v1.0
#
DISCID=bc114f10
DTITLE=To The Vanishing Point - Watch The Planes Cut Through The Grey Sky
DYEAR=2007
DGENRE=
TTITLE0=The Worst Day Of My Life
TTITLE1=Watch The Planes
TTITLE2=Cut Through The Grey Sky
TTITLE3=Dry Land
TTITLE4=City Lights
TTITLE5=Reach The Stars
TTITLE6=The Tide
TTITLE7=Things We Lost
TTITLE8=In The Sand
TTITLE9=Horizon Is Too Near
TTITLE10=Harmless Games
TTITLE11=Summer Breeze
TTITLE12=The Need To Shine
TTITLE13=Scarlett
TTITLE14=Whishes
TTITLE15=Bonustrack
EXTD=
EXTT0=
EXTT1=
EXTT2=
EXTT3=
EXTT4=
EXTT5=
EXTT6=
EXTT7=
EXTT8=
EXTT9=
EXTT10=
EXTT11=
EXTT12=
EXTT13=
EXTT14=
EXTT15=
PLAYORDER=
